<svg width="142" height="40" viewBox="0 0 142 40" fill="none" xmlns="http://www.w3.org/2000/svg">
<g clip-path="url(#clip0)">
<path d="M42.6406 14.9269H51.2662C55.2781 14.9269 57.3063 17.49 57.3063 21.2345C57.3063 25.2241 54.6763 27.4083 50.6867 27.4083H47.5663V31.9106H42.6629V14.9269H42.6406ZM47.5441 19.0279V23.4633H50.3301C51.6674 23.4633 52.4698 22.6386 52.4698 21.1676C52.4698 20.0978 51.868 19.0279 50.3078 19.0279H47.5441Z" fill="#F8F6F4"/>
<path d="M59.4 14.9269H68.4491C72.305 14.9269 74.2441 17.3117 74.2441 20.7441C74.2441 23.1736 73.2634 24.8898 71.5918 25.8259L74.3555 31.9106H68.984L66.8443 26.7397H64.1697V31.9106H59.3555V14.9269H59.4ZM64.192 18.8942V22.9061H67.3793C68.6274 22.9061 69.3629 22.1706 69.3629 20.8779C69.3629 19.808 68.828 18.9165 67.4461 18.9165H64.192V18.8942Z" fill="#F8F6F4"/>
<path d="M76.9883 14.9269H81.8917V31.9106H76.9883V14.9269Z" fill="#F8F6F4"/>
<path d="M89.5143 22.5495L89.7149 31.9106H85.3018V14.9269H90.5395L95.3538 26.3385L100.146 14.9269H105.54V31.9106H100.948L101.171 22.126L96.9808 31.9106H93.593L89.5143 22.5495Z" fill="#F8F6F4"/>
<path d="M118.534 29.6372H112.606L111.937 31.9106H107.078L112.739 14.9269H118.579L124.24 31.9106H119.248L118.534 29.6372ZM113.675 25.9819H117.464L115.57 19.7189L113.675 25.9819Z" fill="#F8F6F4"/>
<path d="M133.065 26.7174L129.967 31.9106H124.707L130.39 23.3742L124.997 14.9269H130.747L133.644 20.2092L136.475 14.9269H141.735L136.23 23.2627L142.003 31.9329H136.23L133.065 26.7174Z" fill="#F8F6F4"/>
<path d="M42.6381 1.06355C42.6381 1.39787 42.4821 1.70991 42.2369 1.88821C41.5906 2.42313 34.8372 8.08437 25.7882 18.2924L24.2503 16.0636C23.7599 15.3726 22.9798 14.9269 22.066 14.9269H14.9337L21.0853 23.7753C17.8981 27.5867 14.5548 31.9552 11.1447 36.6357C6.30816 34.5629 0.000568418 31.9552 0.000568418 26.6283C-0.15545 16.0859 31.8506 2.93576 41.2563 0.0382823C42.1032 -0.162313 42.6381 0.461762 42.6381 1.06355ZM25.2532 29.7486C24.1388 31.6208 22.4895 34.7858 20.8847 39.6223C25.8996 41.0711 29.4657 40.291 30.0452 40.1796C30.7362 40.0235 31.2265 39.4663 31.2265 38.7754C31.2265 38.4634 31.1151 38.1513 30.9368 37.9284L25.2532 29.7486Z" fill="#F8F6F4"/>
</g>
<defs>
<clipPath id="clip0">
<rect width="142" height="40" fill="white"/>
</clipPath>
</defs>
</svg>
